<?xml version="1.0" encoding="utf-8"?>
<!-- Generator: Adobe Illustrator 16.0.0, SVG Export Plug-In . SVG Version: 6.00 Build 0)  -->
<!DOCTYPE svg PUBLIC "-//W3C//DTD SVG 1.0//EN" "http://www.w3.org/TR/2001/REC-SVG-20010904/DTD/svg10.dtd">
<svg version="1.0" id="Layer_1" xmlns="http://www.w3.org/2000/svg" xmlns:xlink="http://www.w3.org/1999/xlink" x="0px" y="0px"
	 width="800px" height="800px" viewBox="0 0 800 800" enable-background="new 0 0 800 800" xml:space="preserve">
<g>
	<path fill="#505E67" d="M519.562,445.397c-16.011-0.296-28.151-14.777-27.97-31.449c-0.027-16.704,12.438-31.078,28.48-30.99
		c13.681,0.155,25.82,14.634,25.607,31.516C545.705,431.178,533.272,445.341,519.562,445.397 M515.918,359.632
		c-25.233-0.201-48.159,22.428-48.525,55.771l-0.695,88.957l24.156,0.252l0.26-48.131c7.915,8.482,16.112,12.3,27.876,12.377
		c26.312,0.151,49.363-23.314,49.589-54.324C568.834,383.313,544.143,359.858,515.918,359.632 M397.441,365.791
		c0.206-12.601,8.117-16.75,16.886-16.699c6.823,0.182,16.23,5.895,22.034,12.774l15.772-19.224
		c-7.71-11.236-23.234-18.952-36.253-19.22c-25.684-0.057-44.357,15.73-44.54,42.248c-0.388,48.97,56.296,33.834,56.163,61.43
		c-0.229,8.53-7.99,15.914-16.76,15.862c-14.096-0.218-18.55-7.533-24.886-15.136l-17.414,18.759
		c10.854,14.497,24.494,21.928,40.746,22.046c24.365,0.283,44.149-15.759,44.382-41.2
		C453.952,372.894,397.254,389.527,397.441,365.791 M762.396,447.889c-13.922,0.022-17.841-6.566-17.84-16.416l0.25-43.853
		l21.822,0.111l0.173-22.24l-21.789-0.319l0.388-29.273l-24.231,11.514l-0.728,89.167c-0.06,22.898,14.65,34.559,34.734,34.832
		c3.026-0.183,7.306-0.172,9.556-0.9l6.048-22.843C768.203,447.701,765.177,447.884,762.396,447.889"/>
	<path fill="#505E67" d="M215.688,420.552c-0.141,12.182-9.33,21.917-20.674,21.901c-11.554-0.045-20.712-10.218-20.568-22.397
		l0.512-62.439l-23.737-0.188l-0.512,62.438c-0.149,26.311,19.498,47.715,44.104,47.82c24.396,0.075,44.284-20.877,44.613-46.946
		l0.544-62.648l-23.735-0.187 M107.324,378.579l-52.59-0.511l0.584-57.289l-24.991-0.378l-1.105,143.703l24.813,0.138l0.643-60.491
		l52.59,0.51l-0.611,60.283l24.991,0.379l1.107-143.703l-24.814-0.138L107.324,378.579z M310.333,444.379
		c-16.253-0.118-28.394-14.6-28.212-31.271c0.005-16.913,12.438-31.077,28.482-30.99c13.678,0.155,25.818,14.634,25.845,31.338
		C336.267,430.127,323.802,444.501,310.333,444.379 M310.309,358.736c-11.763-0.078-19.788,3.411-27.886,11.599l0.438-47.89
		l-24.152-0.25l-0.695,88.957c-0.157,33.376,22.232,56.48,47.674,56.713c28.227,0.229,53.163-22.95,53.418-54.17
		C359.33,382.683,336.83,358.919,310.309,358.736"/>
	<path fill="#E37538" d="M644.916,453.129c-19.696-0.001-36.668-16.499-36.477-37.451c0.014-21.193,17.464-37.378,36.922-37.2
		c19.663,0.21,36.667,16.5,36.443,37.662C681.788,437.332,664.369,453.308,644.916,453.129 M646.063,275.39
		c4.038,0.188,7.405,1.985,7.298,4.108c-0.08,1.916-3.537,3.53-7.575,3.342c-4.037-0.185-7.406-1.982-7.327-3.898
		C638.566,276.819,642.023,275.204,646.063,275.39 M583.936,518.996c-3.054,3.174-6.447,4.37-7.929,2.859
		c-1.272-1.479-0.073-5.15,2.947-8.114c3.054-3.175,6.447-4.372,7.721-2.893C588.155,512.358,586.747,515.998,583.936,518.996
		 M498.962,272.696c-2.486,3.689-5.558,5.576-7.073,4.276c-1.754-1.124-0.941-5.067,1.306-8.58c2.457-3.479,5.77-5.546,7.282-4.243
		C502.023,265.242,501.419,269.217,498.962,272.696 M655.068,351.267l0.251-34.003c8.087-3.907,13.642-12.268,13.676-22.326
		c0.153-13.679-9.953-24.637-22.762-24.873c-12.633,0.003-23.06,10.835-23.213,24.513c-0.035,10.058,5.517,18.61,13.471,22.603
		l-1.008,34.746c-1.545-1.093,0.21,0.031-2.541-0.175c-5.727,1.057-11.163,3.013-16.276,5.659
		c-11.022-9.171-56.477-46.704-82.532-68.227c0.56-2.27,0.942-4.782,0.872-7.146c0.17-15.174-11.032-27.371-25.129-27.589
		c-14.13-0.011-25.824,12.126-25.752,27.124c-0.168,15.174,11.242,27.403,25.131,27.589c4.94-0.104,9.442-1.559,13.237-3.979
		l5.317,4.449l73.826,57.912c0,0,0.177,0.241-2.844,3.206c-10.763,11.636-17.61,27.08-17.71,44.621
		c-0.174,22.238,10.396,41.404,26.362,53.253c2.789,2.78,3.543,2.039,3.543,2.039l-20.69,33.245
		c-6.79-0.39-13.704,2.839-17.718,9.509c-5.746,9.614-3.23,22.629,5.905,28.73c9.102,6.309,21.068,3.635,27.057-6.157
		c3.98-6.46,3.935-14.604,0.609-20.89l22.005-36.259c5.313,1.665,10.754,2.493,16.53,2.516
		c34.002,0.253,64.195-27.908,64.474-64.905C709.381,382.656,684.927,356.24,655.068,351.267"/>
</g>
</svg>
